<svg xmlns="http://www.w3.org/2000/svg" width="75" height="75" fill="none" viewBox="0 0 75 75">
    <path fill="#C9743B" fill-rule="evenodd" d="M39.3708 26c1.8616 0 3.3708 1.4327 3.3708 3.2v2.24c0 2.2975 1.9619 4.16 4.382 4.16h7.5056C56.4908 35.6 58 37.0327 58 38.8S56.4908 42 54.6292 42h-7.5056C40.9802 42 36 37.2721 36 31.44V29.2c0-1.7673 1.5092-3.2 3.3708-3.2Z" clip-rule="evenodd"/>
    <path fill="#D5D3DD" d="M62.5 20.5v.75c0 .1989.079.3897.2197.5303A.74969.74969 0 0 0 63.25 22c.1989 0 .3897-.079.5303-.2197A.74969.74969 0 0 0 64 21.25v-.75h-1.5Zm-3 0v.75c0 .1989.079.3897.2197.5303A.74969.74969 0 0 0 60.25 22c.1989 0 .3897-.079.5303-.2197A.74969.74969 0 0 0 61 21.25v-.75h-1.5Zm-3 0v.75c0 .1989.079.3897.2197.5303A.74969.74969 0 0 0 57.25 22c.1989 0 .3897-.079.5303-.2197A.74969.74969 0 0 0 58 21.25v-.75h-1.5Zm-3 0v.75c0 .1989.079.3897.2197.5303A.74969.74969 0 0 0 54.25 22c.1989 0 .3897-.079.5303-.2197A.74969.74969 0 0 0 55 21.25v-.75h-1.5Zm7.5 5v-.75c0-.1989.079-.3897.2197-.5303A.74969.74969 0 0 1 61.75 24c.1989 0 .3897.079.5303.2197a.74969.74969 0 0 1 .2197.5303v.75H61Zm-3 0v-.75c0-.1989.079-.3897.2197-.5303A.74969.74969 0 0 1 58.75 24c.1989 0 .3897.079.5303.2197a.74969.74969 0 0 1 .2197.5303v.75H58Zm-3 0v-.75c0-.1989.079-.3897.2197-.5303A.74969.74969 0 0 1 55.75 24c.1989 0 .3897.079.5303.2197a.74969.74969 0 0 1 .2197.5303v.75H55Zm-3 0v-.75c0-.1989.079-.3897.2197-.5303A.74969.74969 0 0 1 52.75 24c.1989 0 .3897.079.5303.2197a.74969.74969 0 0 1 .2197.5303v.75H52Z"/>
    <path fill="#F8A975" d="M73.7075 52c0-2.5-2.7075-3.7075-2.7075-3.7075V47a7.03264 7.03264 0 0 0-1.7166-4.5753A7.03212 7.03212 0 0 0 65 40.0725V39h1c1.8565 0 3.637-.7375 4.9497-2.0503C72.2625 35.637 73 33.8565 73 32v-7c0-.2652-.1054-.5196-.2929-.7071A1.0001 1.0001 0 0 0 72 24c-.2652 0-.5196.1054-.7071.2929A1.0001 1.0001 0 0 0 71 25v.25a.25.25 0 0 1-.0732.1768.25.25 0 0 1-.1768.0732.25.25 0 0 1-.1768-.0732.25.25 0 0 1-.0732-.1768V25c0-.2652-.1054-.5196-.2929-.7071A1.0001 1.0001 0 0 0 69.5 24c-.2652 0-.5196.1054-.7071.2929A1.0001 1.0001 0 0 0 68.5 25v.25a.25.25 0 0 1-.0732.1768.25.25 0 0 1-.1768.0732.25.25 0 0 1-.1768-.0732A.25.25 0 0 1 68 25.25V25c0-.2652-.1054-.5196-.2929-.7071A1.0001 1.0001 0 0 0 67 24c-.2652 0-.5196.1054-.7071.2929A1.0001 1.0001 0 0 0 66 25v6c0 .2652-.1054.5196-.2929.7071A1.0001 1.0001 0 0 1 65 32v-7c-18.557 0 0-4 0-4v-8l-1.25-1.25h-15.5L47 13v19a1.0001 1.0001 0 0 1-.7071-.2929A1.0001 1.0001 0 0 1 46 31v-5.2266S44 23.7099 44 25v.25a.25.25 0 0 1-.0732.1768.25.25 0 0 1-.1768.0732.25.25 0 0 1-.1768-.0732.25.25 0 0 1-.0732-.1768V25c0-1.2901-2-1.2901-2 0 0 .1926-.2656.25-.2656.25S41 25.1926 41 25c0-1.2901-2 .7812-2 .7812V32c0 1.8565.7375 3.637 2.0503 4.9497C42.363 38.2625 44.1435 39 46 39h1v4c0 .2652-.1054.5196-.2929.7071A1.0001 1.0001 0 0 1 46 44h-4v10c3 0 3.7075-3 3.7075-3H47a6.98053 6.98053 0 0 0 3.7439-1.0807A6.98018 6.98018 0 0 0 53.325 47H63c.2652 0 .5196.1054.7071.2929S64 47.7348 64 48v4h9.7075Z"/>
    <path fill="#F8A975" d="M58.9978 6.00012h-5.9983c-3.8114 0-5.9983 2.16377-5.9983 5.93488v.9892l.0019-.0019-.0016.0019v13.2171s-.3326 1.8588 9.0609 1.8588c9.3936 0 8.9339-1.8588 8.9339-1.8588V12.9242l-.0002-.0004v-.9888c0-3.77111-2.1869-5.93488-5.9983-5.93488Z"/>
    <path fill="#663F4C" d="m56.3439 20.9962-.3271.6253-.3548-.6147c-.0799-.1383-.1658-.2302-.2611-.2935-.0848-.0562-.1046-.0638-.3533-.1445-.3602-.1168-.5476-.289-.5476-.6329 0-.6817.5665-.9359 1.5-.9359s1.5.2542 1.5.9359c0 .3475-.1939.5174-.5647.6341-.2248.0707-.2328.0735-.3036.1125-.1123.0617-.205.1553-.2878.3137Z"/>
    <path fill="#F8A975" d="M49.9124 2.27963s1.7039 1.83185 2.5468 3.00957c.7078.989 1.5136 2.71416 1.5136 2.71416l-6.909 2.99154s.087-2.52601.8643-4.86961c.7773-2.34359 1.9843-3.84566 1.9843-3.84566Zm12.3984-.02191s-1.6403 1.8417-2.4536 3.02401c-.683.99284-1.4647 2.72174-1.4647 2.72174l6.5788 2.94043s-.0655-2.52272-.7918-4.85841c-.7262-2.33569-1.8687-3.82777-1.8687-3.82777Z"/>
    <path stroke="#663F4C" stroke-linecap="round" d="M50.5705 20.0855c-1.6669-.6668-5.8351-2.0355-9.1721-2.1758m8.919 4.244c-1.7547-.3798-6.0037-.7288-9.3174-.3114m20.4256-1.7568c1.6669-.6668 5.8351-2.0355 9.1721-2.1758m-8.9151 4.244c1.7547-.3798 6.0037-.7288 9.3174-.3114"/>
    <path stroke="#fff" stroke-linecap="round" d="m54.8504 11.8269-.3856-2.00463m2.7005 2.00463.3855-2.00463"/>
    <path stroke="#663F4C" stroke-linecap="round" d="M53.6992 22.6951c1.7416 0 2.2859-1.3846 2.2859-1.3846s.5986 1.4661 2.3402 1.3846"/>
    <path fill="#fff" d="M53 18.75c1.2426 0 2.25-1.0074 2.25-2.25s-1.0074-2.25-2.25-2.25-2.25 1.0074-2.25 2.25 1.0074 2.25 2.25 2.25Z"/>
    <path fill="#9FA628" d="M53 17.75c.6904 0 1.25-.5596 1.25-1.25s-.5596-1.25-1.25-1.25-1.25.5596-1.25 1.25.5596 1.25 1.25 1.25Z"/>
    <path fill="#fff" d="M59 18.75c1.2426 0 2.25-1.0074 2.25-2.25s-1.0074-2.25-2.25-2.25-2.25 1.0074-2.25 2.25 1.0074 2.25 2.25 2.25Z"/>
    <path fill="#9FA628" d="M59 17.75c.6904 0 1.25-.5596 1.25-1.25s-.5596-1.25-1.25-1.25-1.25.5596-1.25 1.25.5596 1.25 1.25 1.25Z"/>
    <path fill="#D5D3DD" d="m24 25-1-2-1 2 1 .5 1-.5Zm-3 0-1-2-1 2 1 .5 1-.5Zm-3 0-1-2-1 2 1 .5 1-.5Zm-3 0-1-2-1 2 1 .5 1-.5Zm-3 0-1-2-1 2 1 .5 1-.5Zm10.5-4-1 2-1-2 1-.5 1 .5Zm-3 0-1 2-1-2 1-.5 1 .5Zm-3 0-1 2-1-2 1-.5 1 .5Zm-3 0-1 2-1-2 1-.5 1 .5Z"/>
    <path fill="#E2CBB5" d="m6.99875 41.85-6.03-3.35 6.03-3.35v6.7Z"/>
    <path fill="#E2CBB5" d="m6.99875 36.85-6.03-3.35 6.03-3.35v6.7Z"/>
    <path fill="#E2CBB5" d="m6.99875 31.85-6.03-3.35 6.03-3.35v6.7Z"/>
    <path fill="#E2CBB5" d="m6.99875 26.85-6.03-3.35 6.03-3.35v6.7Z"/>
    <path fill="#9FA628" d="M11 25a2.00005 2.00005 0 0 1-2-2 2.00005 2.00005 0 0 1 2-2h13v-9c0-1.6875-.43-3.055-1.25-4.055l1.3225-1.3225A2.65242 2.65242 0 0 0 25.5 7a.50017.50017 0 0 0 .3536-.14645A.50022.50022 0 0 0 26 6.5a.50022.50022 0 0 0-.1464-.35355A.50017.50017 0 0 0 25.5 6c-.9525 0-1.5-.5475-1.5-1.5a.50022.50022 0 0 0-.1464-.35355A.50017.50017 0 0 0 23.5 4a.50017.50017 0 0 0-.3536.14645A.50022.50022 0 0 0 23 4.5c-.0094.49775.1214.9881.3775 1.415L22.055 7.25C21.055 6.43 19.6875 6 18 6h-6c-1.6875 0-3.055.43-4.055 1.25L6.6225 5.9275A2.65252 2.65252 0 0 0 7 4.5a.49997.49997 0 0 0-.5-.5.49997.49997 0 0 0-.5.5C6 5.4525 5.4525 6 4.5 6a.49997.49997 0 0 0-.5.5.49997.49997 0 0 0 .5.5 2.65246 2.65246 0 0 0 1.415-.3775L7.25 7.945C6.43 8.945 6 10.3125 6 12v31a.99997.99997 0 0 1-1 1H1v10.7075L4.7075 51H6a6.9801 6.9801 0 0 0 6.325-4H22c.2652 0 .5196.1054.7071.2929S23 47.7348 23 48v4h10.7075L30 48.2925V47a7.03264 7.03264 0 0 0-1.7166-4.5753A7.03212 7.03212 0 0 0 24 40.0725V40h12.925l-2.895-2.3175L37.58 36.5l-3.55-1.1825L36.925 33H24v-1h12.925l-2.895-2.3175L37.58 28.5l-3.55-1.1825L36.925 25H11Z"/>
    <path fill="#fff" d="M12 18.75c1.2426 0 2.25-1.0074 2.25-2.25s-1.0074-2.25-2.25-2.25-2.25 1.0074-2.25 2.25 1.0074 2.25 2.25 2.25Z"/>
    <path fill="#BF6C35" d="M12 17.75c.6904 0 1.25-.5596 1.25-1.25s-.5596-1.25-1.25-1.25-1.25.5596-1.25 1.25.5596 1.25 1.25 1.25Z"/>
    <path fill="#fff" d="M18 18.75c1.2426 0 2.25-1.0074 2.25-2.25s-1.0074-2.25-2.25-2.25-2.25 1.0074-2.25 2.25 1.0074 2.25 2.25 2.25Z"/>
    <path fill="#BF6C35" d="M18 17.75c.6904 0 1.25-.5596 1.25-1.25s-.5596-1.25-1.25-1.25-1.25.5596-1.25 1.25.5596 1.25 1.25 1.25Z"/>
    <path fill="#F8A975" d="M39 25.25c0-.6904.5596-1.25 1.25-1.25.5089 0 .9468.3042 1.1418.7406.1804-.4348.609-.7406 1.109-.7406.4993 0 .9274.305 1.1082.7388.1954-.4355.6328-.7388 1.141-.7388.6904 0 1.25.5596 1.25 1.25v.5c0 .6904-.5596 1.25-1.25 1.25-.5082 0-.9456-.3033-1.141-.7388-.1808.4338-.6089.7388-1.1082.7388-.5 0-.9286-.3058-1.109-.7406-.195.4364-.6329.7406-1.1418.7406-.6904 0-1.25-.5596-1.25-1.25v-.5Zm27 0c0-.6904.5596-1.25 1.25-1.25.5089 0 .9468.3042 1.1418.7406.1804-.4348.609-.7406 1.109-.7406.4993 0 .9274.305 1.1082.7388.1954-.4355.6328-.7388 1.141-.7388.6904 0 1.25.5596 1.25 1.25v.5c0 .6904-.5596 1.25-1.25 1.25-.5082 0-.9456-.3033-1.141-.7388-.1808.4338-.6089.7388-1.1082.7388-.5 0-.9286-.3058-1.109-.7406-.195.4364-.6329.7406-1.1418.7406-.6904 0-1.25-.5596-1.25-1.25v-.5Z"/>
    <path fill="#FF7373" fill-rule="evenodd" d="M42.5 29.928c2.5.4166 2.5-1.0552 2.5-2.3568 0-.865-.5411-1.2282-1.3333-.8922C43.3004 26 42.9631 26 42.5 26c-.4557 0-.7985 0-1.1667.679-.7466-.2717-1.3333.0202-1.3333.8922 0 1.3016 0 2.7734 2.5 2.3568Zm27 0c2.5.4166 2.5-1.0552 2.5-2.3568 0-.865-.5411-1.2282-1.3333-.8922C70.3004 26 69.9631 26 69.5 26c-.4557 0-.7985 0-1.1667.679-.7466-.2717-1.3333.0202-1.3333.8922 0 1.3016 0 2.7734 2.5 2.3568Z" clip-rule="evenodd"/>
</svg>
