<svg xmlns="http://www.w3.org/2000/svg" style="margin-top: -3px;" width="75" height="80" fill="none" viewBox="0 0 75 75">
    <path fill="#EDB766" fill-rule="evenodd" d="m39.0715 28.0989.4725.4193c.71.6301 1.8588 2.4682 1.7497 5.2988-.0364.9449-.4368 2.1332-.8917 3.3824-.0892.2449-.1814.4944-.2751.748-.3986 1.0784-.8254 2.2332-1.1706 3.4437-.8539 2.9947-1.1492 6.1419.6915 8.882 2.1759 3.239 6.5065 4.5335 10.2032 4.4368 1.8417-.0481 3.4334-.4417 4.4457-1.0388.5032-.2968.8272-.6222.9936-.9448.1581-.3066.1956-.65.0545-1.0569l-.2033-.5865 1.2201-.3909.2034.5864c.2447.7058.1917 1.388-.1224 1.9971-.3059.593-.8357 1.0734-1.4733 1.4494-1.2691.7486-3.1065 1.1692-5.0833 1.2209-3.9404.103-8.8052-1.2606-11.3186-5.002-2.1459-3.1944-1.7338-6.7852-.8514-9.8795.359-1.2591.8056-2.4671 1.2051-3.5477.0921-.249.1816-.4912.267-.7257.4695-1.2892.7925-2.2955.8204-3.0196.0967-2.5104-.9323-3.9857-1.3369-4.3447l-.4725-.4193.8724-.9084Z" clip-rule="evenodd"/>
    <path fill="#DD2C00" d="M47.2778 31.9122c-3.4706 2.4548-9.2973 8.6932-9.2973 22.848 0 .1381.0382.273.1097.3877.0715.1148.1732.2042.2921.257.1189.0528.2498.0667.376.0398.1263-.0269.2423-.0934.3333-.191.0156-.0167.0313-.0335.046-.0493.0497-.0661 5.0194-6.5948 9.1753-9.8593.0902-.0704.1619-.1646.2081-.2735.0462-.1089.0654-.2287.0557-.3479-.191-2.4325-.2886-5.3017-.2886-8.5273l-.0019-3.7033c-.0001-.126-.032-.2496-.0923-.3577-.0604-.1081-.1469-.1966-.2504-.2563-.1034-.0596-.2201-.0882-.3374-.0825-.1174.0057-.2312.0453-.3293.1147l.001.0009Zm17.7988-.0009c-.0913-.0695-.1973-.1091-.3066-.1147-.1092-.0056-.2178.023-.3141.0827-.0963.0598-.1768.1485-.2329.2568-.056.1082-.0856.2319-.0856.358v3.6994c.0004 3.2261-.0899 6.0949-.2681 8.527-.0087.1191.0093.2388.0523.3476.043.1088.1095.2031.1931.2737 3.8667 3.2647 8.491 9.7939 8.5368 9.8595.0789.1115.1858.1922.3061.2309.1202.0388.2479.0338.3656-.0143.1177-.0481.2196-.1369.2918-.2543.0721-.1174.1111-.2576.1114-.4015.0005-14.1565-5.4191-20.3931-8.6498-22.8508Z"/>
    <path fill="#D5D3DD" d="M56.6249.17722A.8559.8559 0 0 0 56.1033 0a.8563.8563 0 0 0-.5216.17722c-3.7759 2.92082-6.835 6.66427-8.9442 10.94518a31.3395 31.3395 0 0 0-3.2273 13.7583v4.1844c0 9.9254.8217 15.5333 1.5109 18.4896.2715 1.1952.9415 2.2625 1.9001 3.0269.9586.7643 2.1488 1.1802 3.3751 1.1794h11.8152a5.38583 5.38583 0 0 0 2.0672-.4077 5.38229 5.38229 0 0 0 1.7522-1.1694 5.46212 5.46212 0 0 0 1.4559-2.6292c.6898-2.9569 1.5115-8.5636 1.5103-18.489l.0006-4.1851c-.0146-4.7717-1.1187-9.4773-3.2281-13.7582-2.1095-4.28093-5.1687-8.02435-8.9447-10.94518Z"/>
    <path fill="#663F4C" d="M61.9444 51.7584a5.42536 5.42536 0 0 0 2.0739-.4071c.6575-.2703 1.2549-.6672 1.7578-1.1679.7241-.7223 1.3535-1.6296 1.5841-2.6235.2306-.9784.4735-2.3156.6969-3.9329H44.1484c.2234 1.6173.4239 2.9551.6527 3.9329.2724 1.1936.9446 2.2596 1.9063 3.023.9617.7634 2.1557 1.1787 3.386 1.1779l11.851-.0024Z"/>
    <path fill="#DD2C00" d="M55.5795.17516C51.629 3.1947 48.4697 7.1075 46.3672 11.5846h19.472C63.735 7.10719 60.574 3.19442 56.622.17516 56.4726.06158 56.2893 0 56.1008 0c-.1886 0-.3718.06158-.5213.17516Z"/>
    <circle cx="56.2237" cy="23.4156" r="10.5987" fill="#663F4C"/>
    <circle cx="56.2253" cy="23.4157" r="9.11979" fill="#663F4C"/>
    <path fill="#663F4C" d="M54.5 51.7607h2.95777v.98592H54.5z"/>
    <mask id="mask0_9210_28782" width="19" height="19" x="47" y="14" maskUnits="userSpaceOnUse" style="mask-type:alpha">
        <path fill="#4294FF" d="M56.2171 14.2959a9.1195 9.1195 0 0 0-8.4221 5.6317 9.11959 9.11959 0 0 0-.518 5.2683 9.1196 9.1196 0 0 0 2.4957 4.6685 9.12026 9.12026 0 0 0 4.6684 2.4956 9.11956 9.11956 0 0 0 9.3613-3.875 9.11957 9.11957 0 0 0 1.5387-5.0651c-.0029-2.4189-.9652-4.7379-2.6756-6.4483-1.7105-1.7105-4.0295-2.6727-6.4484-2.6757Z"/>
    </mask>
    <g mask="url(#mask0_9210_28782)">
        <path fill="#fff" d="M62.7344 24.3723v.7667c0 .4242.3453.7666.7731.7666s.7732-.3424.7732-.7666v-.7667h-1.5463Zm-3.0899 0v.7667c0 .4242.3454.7666.7732.7666s.7731-.3424.7731-.7666v-.7667h-1.5463Zm-3.0898 0v.7667c0 .4242.3453.7666.7731.7666s.7732-.3424.7732-.7666v-.7667h-1.5463Zm-3.0938 0v.7667c0 .4242.3454.7666.7732.7666s.7731-.3424.7731-.7666v-.7667h-1.5463Zm7.7305 5.1109v-.7666c0-.4242.3453-.7666.7732-.7666.4278 0 .7731.3424.7731.7666v.7666h-1.5463Zm-3.0898 0v-.7666c0-.4242.3453-.7666.7731-.7666s.7732.3424.7732.7666v.7666h-1.5463Zm-3.0938 0v-.7666c0-.4242.3454-.7666.7732-.7666s.7731.3424.7731.7666v.7666h-1.5463Zm-3.0937 0v-.7666c0-.4242.3453-.7666.7731-.7666s.7732.3424.7732.7666v.7666h-1.5463Z"/>
        <path fill="#E2CBB5" d="m75.3211 56.5714-3.8219-3.7898v-1.3211c0-3.5573-2.6802-6.5804-6.1851-7.0813v-1.0963h1.0308c3.9791 0 7.216-3.2097 7.216-7.1554v-7.1554c0-.5647-.4613-1.0222-1.0308-1.0222-.5696 0-1.0309.4575-1.0309 1.0222v.2556c0 .1405-.116.2555-.2577.2555s-.2577-.115-.2577-.2555v-.2556c0-.5647-.4613-1.0222-1.0309-1.0222-.5695 0-1.0308.4575-1.0308 1.0222v.2556c0 .1405-.116.2555-.2577.2555-.1418 0-.2578-.115-.2578-.2555v-.2556c0-.5647-.4613-1.0222-1.0308-1.0222-.5696 0-1.0309.4575-1.0309 1.0222v6.1332c0 .5648-.4613 1.0222-1.0308 1.0222v-7.1554H51.9129c-1.1365 0-2.0617-.9174-2.0617-2.0444 0-1.1269.9252-2.0444 2.0617-2.0444h13.6476c0-3.0259-.2464-4.8589-.2464-8.1775l-1.5463-1.7889-1.5463 1.2778-1.5463-1.5333-1.5463 1.5333-1.5463-1.5333-1.5463 1.5333-1.5463-1.5333-1.5463 1.5333-1.5462-1.5333-1.5463 1.5333-1.5463-1.2778-1.5463 1.7889v19.4217c-.5696 0-1.0309-.4574-1.0309-1.0222v-6.1332c0-.5647-.4613-1.0222-1.0308-1.0222-.5696 0-1.0309.4575-1.0309 1.0222v.2556c0 .1405-.116.2555-.2577.2555s-.2577-.115-.2577-.2555v-.2556c0-.5647-.4613-1.0222-1.0309-1.0222-.5695 0-1.0308.4575-1.0308 1.0222v.2556c0 .1405-.116.2555-.2577.2555-.1418 0-.2578-.115-.2578-.2555v-.2556c0-.5647-.4613-1.0222-1.0308-1.0222-.5696 0-1.0309.4575-1.0309 1.0222v7.1554c0 3.9457 3.2369 7.1554 7.216 7.1554h1.0309v4.0888c0 .5647-.4613 1.0222-1.0309 1.0222h-4.1234V59.339l3.8219-3.7898h1.3324c2.8065 0 5.3295-1.5946 6.5202-4.0887h9.9735c.5696 0 1.0309.4574 1.0309 1.0222v4.0887h11.0379Z"/>
        <path fill="#BF6C35" d="M47.3438 15.2815c0-3.7588 2.1567-5.91553 5.9155-5.91553h5.9155c3.7589 0 5.9156 2.15673 5.9156 5.91553v.9859c-.4314 0-.5854-.2465-.7395-.4929-.154-.2465-.3081-.493-.7394-.493-.4314 0-.5854.2465-.7395.493-.154.2464-.3081.4929-.7394.4929-.4313 0-.5854-.2465-.7394-.4929-.1541-.2465-.3081-.493-.7395-.493-.4313 0-.5854.2465-.7394.493-.1541.2464-.3081.4929-.7395.4929-.4313 0-.5854-.2465-.7394-.4929-.1541-.2465-.3081-.493-.7395-.493-.4313 0-.5853.2465-.7394.493-.154.2464-.3081.4929-.7394.4929-.4314 0-.5854-.2465-.7395-.4929-.154-.2465-.3081-.493-.7394-.493-.4314 0-.5854.2465-.7395.493-.154.2464-.3081.4929-.7394.4929-.4314 0-.5854-.2465-.7395-.4929-.154-.2465-.3081-.493-.7394-.493-.4313 0-.5854.2465-.7394.493-.1541.2464-.3081.4929-.7395.4929-.4313 0-.5854-.2465-.7394-.4929-.1541-.2465-.3081-.493-.7395-.493-.4313 0-.5854.2465-.7394.493-.1541.2464-.3081.4929-.7394.4929v-.9859Z"/>
        <path fill="#fff" d="M52.9444 22.5835c1.281 0 2.3195-1.0297 2.3195-2.2999s-1.0385-2.3-2.3195-2.3c-1.281 0-2.3194 1.0298-2.3194 2.3 0 1.2702 1.0384 2.2999 2.3194 2.2999Z"/>
        <path fill="#9FA628" d="M52.9409 21.5614c.7117 0 1.2886-.5721 1.2886-1.2778s-.5769-1.2777-1.2886-1.2777c-.7116 0-1.2886.572-1.2886 1.2777 0 .7057.577 1.2778 1.2886 1.2778Z"/>
        <path fill="#fff" d="M59.128 22.5835c1.281 0 2.3195-1.0297 2.3195-2.2999s-1.0385-2.3-2.3195-2.3c-1.281 0-2.3194 1.0298-2.3194 2.3 0 1.2702 1.0384 2.2999 2.3194 2.2999Z"/>
        <path fill="#9FA628" d="M59.1245 21.5614c.7117 0 1.2886-.5721 1.2886-1.2778s-.5769-1.2777-1.2886-1.2777c-.7116 0-1.2886.572-1.2886 1.2777 0 .7057.577 1.2778 1.2886 1.2778Z"/>
    </g>
    <path fill="#D5D3DD" d="m24 28-1-2-1 2 1 .5 1-.5Zm-3 0-1-2-1 2 1 .5 1-.5Zm-3 0-1-2-1 2 1 .5 1-.5Zm-3 0-1-2-1 2 1 .5 1-.5Zm-3 0-1-2-1 2 1 .5 1-.5Zm10.5-4-1 2-1-2 1-.5 1 .5Zm-3 0-1 2-1-2 1-.5 1 .5Zm-3 0-1 2-1-2 1-.5 1 .5Zm-3 0-1 2-1-2 1-.5 1 .5Z"/>
    <path fill="#E2CBB5" d="m6.99875 44.85-6.03-3.35 6.03-3.35v6.7Z"/>
    <path fill="#E2CBB5" d="m6.99875 39.85-6.03-3.35 6.03-3.35v6.7Z"/>
    <path fill="#E2CBB5" d="m6.99875 34.85-6.03-3.35 6.03-3.35v6.7Z"/>
    <path fill="#E2CBB5" d="m6.99875 29.85-6.03-3.35 6.03-3.35v6.7Z"/>
    <path fill="#9FA628" d="M11 28a2.00005 2.00005 0 0 1-2-2 2.00005 2.00005 0 0 1 2-2h13v-9c0-1.6875-.43-3.055-1.25-4.055l1.3225-1.3225c.4305.25841.9255.3893 1.4275.3775a.50017.50017 0 0 0 .3536-.14645A.50022.50022 0 0 0 26 9.5a.50022.50022 0 0 0-.1464-.35355A.50017.50017 0 0 0 25.5 9c-.9525 0-1.5-.5475-1.5-1.5a.50022.50022 0 0 0-.1464-.35355A.50017.50017 0 0 0 23.5 7a.50017.50017 0 0 0-.3536.14645A.50022.50022 0 0 0 23 7.5c-.0094.49775.1214.9881.3775 1.415L22.055 10.25C21.055 9.43 19.6875 9 18 9h-6c-1.6875 0-3.055.43-4.055 1.25L6.6225 8.9275A2.65252 2.65252 0 0 0 7 7.5a.49997.49997 0 0 0-.5-.5.49997.49997 0 0 0-.5.5C6 8.4525 5.4525 9 4.5 9a.49997.49997 0 0 0-.5.5.49997.49997 0 0 0 .5.5 2.6529 2.6529 0 0 0 1.415-.3775L7.25 10.945C6.43 11.945 6 13.3125 6 15v31a.99997.99997 0 0 1-1 1H1v10.7075L4.7075 54H6a6.9801 6.9801 0 0 0 6.325-4H22c.2652 0 .5196.1054.7071.2929S23 50.7348 23 51v4h10.7075L30 51.2925V50a7.03264 7.03264 0 0 0-1.7166-4.5753A7.03212 7.03212 0 0 0 24 43.0725V43h6.925v-7H24l.0725-8H11Z"/>
    <path fill="#fff" d="M12 21.75c1.2426 0 2.25-1.0074 2.25-2.25s-1.0074-2.25-2.25-2.25-2.25 1.0074-2.25 2.25 1.0074 2.25 2.25 2.25Z"/>
    <path fill="#BF6C35" d="M12 20.75c.6904 0 1.25-.5596 1.25-1.25s-.5596-1.25-1.25-1.25-1.25.5596-1.25 1.25.5596 1.25 1.25 1.25Z"/>
    <path fill="#fff" d="M18 21.75c1.2426 0 2.25-1.0074 2.25-2.25s-1.0074-2.25-2.25-2.25-2.25 1.0074-2.25 2.25 1.0074 2.25 2.25 2.25Z"/>
    <path fill="#BF6C35" d="M18 20.75c.6904 0 1.25-.5596 1.25-1.25s-.5596-1.25-1.25-1.25-1.25.5596-1.25 1.25.5596 1.25 1.25 1.25Z"/>
    <path fill="#9FA628" d="M24 28h9v7h-9z"/>
    <path fill="#DD2C00" d="M36 20.2632C36 22.9142 34.0182 25 31.4997 25 28.9812 25 27 22.9142 27 20.2632 27 17.6121 31.0437 15.4 30.5877 13 31.5 13 36 16.4235 36 20.2632Z"/>
    <path fill="#FFDC22" d="M34.2 21.5263c0-2.3997-2.7-4.7368-2.7-4.7368 0 1.92-2.7 2.8171-2.7 4.7368 0 1.5903 1.1889 2.8421 2.7 2.8421s2.7-1.2518 2.7-2.8421Z"/>
    <path fill="#EDB766" d="M31 24h1v21h-1z"/>
    <path fill="#663F4C" fill-rule="evenodd" d="M32.143 24.4055c.5129-.3704 1.039-1.1681 1.039-2.0924 0-1.2775-.4187-2.3131-1.591-2.3131S30 21.0356 30 22.3131c0 .9243.5261 1.722 1.039 2.0924h1.104Z" clip-rule="evenodd"/>
    <path fill="#9FA628" d="M33 43.0001h-9v-7h9c.5523 0 1 .4477 1 1v5c0 .5523-.4477 1-1 1Z"/>
    <path fill="#888E1A" d="M30.983 35.0001H33c.5523 0 1-.4477 1-1v-5c0-.5523-.4477-1-1-1h-2.017c-1.041 0-1.3891 1.3925-.4706 1.8824l.8159.4351-.9293.2063c-1.0445.2318-1.0445 1.7207 0 1.9525l.9293.2062-.8159.4352c-.9185.4899-.5704 1.8823.4706 1.8823Z"/>
    <path fill="#C2CA3D" d="M32 40.4895c0-.2703.2192-.4895.4895-.4895h1.4687v.9791h-1.4687c-.2703 0-.4895-.2192-.4895-.4896Zm0-2c0-.2703.2192-.4895.4895-.4895h1.4687v.9791h-1.4687c-.2703 0-.4895-.2192-.4895-.4896Z"/>
</svg>
