<svg xmlns="http://www.w3.org/2000/svg" width="83" height="75" fill="none" viewBox="0 0 83 75">
    <path fill="#9FA628" fill-rule="evenodd" d="M42 51.9328C42 53.6268 43.2201 55 44.7254 55h19.8258C80.8923 55 83 49.7641 83 48c0 0-5.373.8656-14.7741.8656H44.7254c-1.5053 0-2.7254 1.3732-2.7254 3.0672Z" clip-rule="evenodd"/>
    <path fill="#D5D3DD" d="M66.5 20.5v.75c0 .1989.079.3897.2197.5303A.74969.74969 0 0 0 67.25 22c.1989 0 .3897-.079.5303-.2197A.74969.74969 0 0 0 68 21.25v-.75h-1.5Zm-3 0v.75c0 .1989.079.3897.2197.5303A.74969.74969 0 0 0 64.25 22c.1989 0 .3897-.079.5303-.2197A.74969.74969 0 0 0 65 21.25v-.75h-1.5Zm-3 0v.75c0 .1989.079.3897.2197.5303A.74969.74969 0 0 0 61.25 22c.1989 0 .3897-.079.5303-.2197A.74969.74969 0 0 0 62 21.25v-.75h-1.5Zm-3 0v.75c0 .1989.079.3897.2197.5303A.74969.74969 0 0 0 58.25 22c.1989 0 .3897-.079.5303-.2197A.74969.74969 0 0 0 59 21.25v-.75h-1.5Zm7.5 5v-.75c0-.1989.079-.3897.2197-.5303A.74969.74969 0 0 1 65.75 24c.1989 0 .3897.079.5303.2197a.74969.74969 0 0 1 .2197.5303v.75H65Zm-3 0v-.75c0-.1989.079-.3897.2197-.5303A.74969.74969 0 0 1 62.75 24c.1989 0 .3897.079.5303.2197a.74969.74969 0 0 1 .2197.5303v.75H62Zm-3 0v-.75c0-.1989.079-.3897.2197-.5303A.74969.74969 0 0 1 59.75 24c.1989 0 .3897.079.5303.2197a.74969.74969 0 0 1 .2197.5303v.75H59Zm-3 0v-.75c0-.1989.079-.3897.2197-.5303A.74969.74969 0 0 1 56.75 24c.1989 0 .3897.079.5303.2197a.74969.74969 0 0 1 .2197.5303v.75H56Z"/>
    <path fill="#E2CBB5" d="M78.7075 52 75 48.2925V47a7.03264 7.03264 0 0 0-1.7166-4.5753A7.03212 7.03212 0 0 0 69 40.0725V39h1c1.8565 0 3.637-.7375 4.9497-2.0503C76.2625 35.637 77 33.8565 77 32v-7c0-.2652-.1054-.5196-.2929-.7071A1.0001 1.0001 0 0 0 76 24c-.2652 0-.5196.1054-.7071.2929A1.0001 1.0001 0 0 0 75 25v.25a.25.25 0 0 1-.0732.1768.25.25 0 0 1-.1768.0732.25.25 0 0 1-.1768-.0732.25.25 0 0 1-.0732-.1768V25c0-.2652-.1054-.5196-.2929-.7071A1.0001 1.0001 0 0 0 73.5 24c-.2652 0-.5196.1054-.7071.2929A1.0001 1.0001 0 0 0 72.5 25v.25a.25.25 0 0 1-.0732.1768.25.25 0 0 1-.1768.0732.25.25 0 0 1-.1768-.0732A.25.25 0 0 1 72 25.25V25c0-.2652-.1054-.5196-.2929-.7071A1.0001 1.0001 0 0 0 71 24c-.2652 0-.5196.1054-.7071.2929A1.0001 1.0001 0 0 0 70 25v6c0 .2652-.1054.5196-.2929.7071A1.0001 1.0001 0 0 1 69 32v-7H56c-.5304 0-1.0391-.2107-1.4142-.5858A1.99997 1.99997 0 0 1 56 21h13v-1.565a2.0004 2.0004 0 0 0 1.0772-.7126 1.99981 1.99981 0 0 0 0-2.4448A2.0004 2.0004 0 0 0 69 15.565V13l-1.25-1.25h-15.5L51 13v2.565a2.0004 2.0004 0 0 0-1.0772.7126 1.99981 1.99981 0 0 0 0 2.4448A2.0004 2.0004 0 0 0 51 19.435V32a1.0001 1.0001 0 0 1-.7071-.2929A1.0001 1.0001 0 0 1 50 31v-6c0-.2652-.1054-.5196-.2929-.7071A1.0001 1.0001 0 0 0 49 24c-.2652 0-.5196.1054-.7071.2929A1.0001 1.0001 0 0 0 48 25v.25a.25.25 0 0 1-.0732.1768.25.25 0 0 1-.1768.0732.25.25 0 0 1-.1768-.0732.25.25 0 0 1-.0732-.1768V25c0-.2652-.1054-.5196-.2929-.7071A1.0001 1.0001 0 0 0 46.5 24c-.2652 0-.5196.1054-.7071.2929A1.0001 1.0001 0 0 0 45.5 25v.25a.25.25 0 0 1-.0732.1768.25.25 0 0 1-.1768.0732.25.25 0 0 1-.1768-.0732A.25.25 0 0 1 45 25.25V25c0-.2652-.1054-.5196-.2929-.7071A1.0001 1.0001 0 0 0 44 24c-.2652 0-.5196.1054-.7071.2929A1.0001 1.0001 0 0 0 43 25v7c0 1.8565.7375 3.637 2.0503 4.9497C46.363 38.2625 48.1435 39 50 39h1v4c0 .6616 6.325 4 6.325 4H67c.2652 0 .5196.1054.7071.2929S68 47.7348 68 48v4h10.7075Z"/>
    <path fill="#fff" d="M57 18.75c1.2426 0 2.25-1.0074 2.25-2.25s-1.0074-2.25-2.25-2.25-2.25 1.0074-2.25 2.25 1.0074 2.25 2.25 2.25Z"/>
    <path fill="#9FA628" d="M57 17.75c.6904 0 1.25-.5596 1.25-1.25s-.5596-1.25-1.25-1.25-1.25.5596-1.25 1.25.5596 1.25 1.25 1.25Z"/>
    <path fill="#fff" d="M63 18.75c1.2426 0 2.25-1.0074 2.25-2.25s-1.0074-2.25-2.25-2.25-2.25 1.0074-2.25 2.25 1.0074 2.25 2.25 2.25Z"/>
    <path fill="#9FA628" d="M63 17.75c.6904 0 1.25-.5596 1.25-1.25s-.5596-1.25-1.25-1.25-1.25.5596-1.25 1.25.5596 1.25 1.25 1.25Z"/>
    <path fill="#BF6C35" d="M51 12c0-3.8125 2.1875-6 6-6h6c3.8125 0 6 2.1875 6 6v1c-.4375 0-.595-.25-.75-.5-.155-.25-.3125-.5-.75-.5s-.595.25-.75.5c-.155.25-.3125.5-.75.5s-.595-.25-.75-.5c-.155-.25-.3125-.5-.75-.5s-.595.25-.75.5c-.155.25-.3125.5-.75.5s-.595-.25-.75-.5c-.155-.25-.3125-.5-.75-.5s-.595.25-.75.5c-.155.25-.3125.5-.75.5s-.595-.25-.75-.5c-.155-.25-.3125-.5-.75-.5s-.595.25-.75.5c-.155.25-.3125.5-.75.5s-.595-.25-.75-.5c-.155-.25-.3125-.5-.75-.5s-.595.25-.75.5c-.155.25-.3125.5-.75.5s-.595-.25-.75-.5c-.155-.25-.3125-.5-.75-.5s-.595.25-.75.5c-.155.25-.3125.5-.75.5v-1Z"/>
    <path fill="#BF6C35" fill-rule="evenodd" d="M0 51.9328C0 53.6268 1.24989 55 2.79182 55H23.1012C39.8409 55 42 49.7641 42 48c0 0-5.5041.8656-15.1344.8656H2.79182C1.24989 48.8656 0 50.2388 0 51.9328Z" clip-rule="evenodd"/>
    <path fill="#D5D3DD" d="m28 25-1-2-1 2 1 .5 1-.5Zm-3 0-1-2-1 2 1 .5 1-.5Zm-3 0-1-2-1 2 1 .5 1-.5Zm-3 0-1-2-1 2 1 .5 1-.5Zm-3 0-1-2-1 2 1 .5 1-.5Zm10.5-4-1 2-1-2 1-.5 1 .5Zm-3 0-1 2-1-2 1-.5 1 .5Zm-3 0-1 2-1-2 1-.5 1 .5Zm-3 0-1 2-1-2 1-.5 1 .5Z"/>
    <path fill="#E2CBB5" d="M10.9987 41.85 4.96875 38.5l6.02995-3.35v6.7Z"/>
    <path fill="#E2CBB5" d="M10.9987 36.85 4.96875 33.5l6.02995-3.35v6.7Z"/>
    <path fill="#E2CBB5" d="M10.9987 31.85 4.96875 28.5l6.02995-3.35v6.7Z"/>
    <path fill="#E2CBB5" d="M10.9987 26.85 4.96875 23.5l6.02995-3.35v6.7Z"/>
    <path fill="#9FA628" d="M15 25c-.5304 0-1.0391-.2107-1.4142-.5858A1.99997 1.99997 0 0 1 15 21h13v-9c0-1.6875-.43-3.055-1.25-4.055l1.3225-1.3225A2.65242 2.65242 0 0 0 29.5 7a.50017.50017 0 0 0 .3536-.14645A.50022.50022 0 0 0 30 6.5a.50022.50022 0 0 0-.1464-.35355A.50017.50017 0 0 0 29.5 6c-.9525 0-1.5-.5475-1.5-1.5a.50022.50022 0 0 0-.1464-.35355A.50017.50017 0 0 0 27.5 4a.50017.50017 0 0 0-.3536.14645A.50022.50022 0 0 0 27 4.5c-.0094.49775.1214.9881.3775 1.415L26.055 7.25C25.055 6.43 23.6875 6 22 6h-6c-1.6875 0-3.055.43-4.055 1.25l-1.3225-1.3225A2.6527 2.6527 0 0 0 11 4.5a.50022.50022 0 0 0-.1464-.35355A.50017.50017 0 0 0 10.5 4a.50017.50017 0 0 0-.3536.14645A.50022.50022 0 0 0 10 4.5C10 5.4525 9.4525 6 8.5 6a.49997.49997 0 0 0-.5.5.49997.49997 0 0 0 .5.5 2.65244 2.65244 0 0 0 1.415-.3775L11.25 7.945C10.43 8.945 10 10.3125 10 12v31c0 2.4584 5.5 3 6.325 4H26c.2652 0 .5196.1054.7071.2929S27 47.7348 27 48v4h10.7075L34 48.2925V47a7.03264 7.03264 0 0 0-1.7166-4.5753A7.03212 7.03212 0 0 0 28 40.0725V40h12.925l-2.895-2.3175L41.58 36.5l-3.55-1.1825L40.925 33H28v-1h12.925l-2.895-2.3175L41.58 28.5l-3.55-1.1825L40.925 25H15Z"/>
    <path fill="#fff" d="M16 18.75c1.2426 0 2.25-1.0074 2.25-2.25s-1.0074-2.25-2.25-2.25-2.25 1.0074-2.25 2.25 1.0074 2.25 2.25 2.25Z"/>
    <path fill="#BF6C35" d="M16 17.75c.6904 0 1.25-.5596 1.25-1.25s-.5596-1.25-1.25-1.25-1.25.5596-1.25 1.25.5596 1.25 1.25 1.25Z"/>
    <path fill="#fff" d="M22 18.75c1.2426 0 2.25-1.0074 2.25-2.25s-1.0074-2.25-2.25-2.25-2.25 1.0074-2.25 2.25 1.0074 2.25 2.25 2.25Z"/>
    <path fill="#BF6C35" d="M22 17.75c.6904 0 1.25-.5596 1.25-1.25s-.5596-1.25-1.25-1.25-1.25.5596-1.25 1.25.5596 1.25 1.25 1.25Z"/>
    <path fill="#9FA628" d="M11.1209 40H13l3.5 7H13c-.2492 0-.4882.1054-.6644.2929-.1762.1875-.2752.4419-.2752.7071v4H2l3.48345-3.7075V47c.00647-1.6813.57866-3.3044 1.61287-4.5753 1.0342-1.2709 2.46198-2.1054 4.02458-2.3522V40Z"/>
    <path fill="#E2CBB5" d="M52.1209 40H54l3.5 7H54c-.2492 0-.4882.1054-.6644.2929-.1762.1875-.2752.4419-.2752.7071v4H43l3.4835-3.7075V47c.0064-1.6813.5786-3.3044 1.6128-4.5753 1.0342-1.2709 2.462-2.1054 4.0246-2.3522V40Z"/>
</svg>
